HIERARCHY
ROOT Hips
{
	OFFSET 0.000000 71.427986 0.000000
	CHANNELS 6 Xposition Yposition Zposition Xrotation Yrotation Zrotation
	JOINT Pelvis
	{
		OFFSET 0.000000 0.000000 0.000000
		CHANNELS 3 Xrotation Yrotation Zrotation
		JOINT LeftUpLeg
		{
			OFFSET 6.797100 -2.508499 -1.318700
			CHANNELS 3 Xrotation Yrotation Zrotation
			JOINT LeftLeg
			{
				OFFSET 0.069008 -29.241863 0.690200
				CHANNELS 3 Xrotation Yrotation Zrotation
				JOINT LeftFoot
				{
					OFFSET -0.069008 -29.568123 -0.266800
					CHANNELS 3 Xrotation Yrotation Zrotation
					JOINT LeftToeBase
					{
						OFFSET 3.145500 -8.631000 16.059900
						CHANNELS 3 Xrotation Yrotation Zrotation
						End Site
						{
							OFFSET 0.000000 18.501587 0.000000
						}
					}
				}
			}
			JOINT Left_ShortSleeve
			{
				OFFSET 0.265923 -10.480953 1.153800
				CHANNELS 3 Xrotation Yrotation Zrotation
				End Site
				{
					OFFSET 1.725763 19.823879 0.000000
				}
			}
		}
		JOINT RightUpLeg
		{
			OFFSET -6.797100 -2.508499 -1.318700
			CHANNELS 3 Xrotation Yrotation Zrotation
			JOINT RightLeg
			{
				OFFSET -0.082453 -29.241932 0.688000
				CHANNELS 3 Xrotation Yrotation Zrotation
				JOINT RightFoot
				{
					OFFSET 0.082453 -29.568058 -0.264600
					CHANNELS 3 Xrotation Yrotation Zrotation
					JOINT RightToeBase
					{
						OFFSET -3.115300 -8.682800 16.113400
						CHANNELS 3 Xrotation Yrotation Zrotation
						End Site
						{
							OFFSET 0.000000 18.567114 0.000000
						}
					}
				}
			}
			JOINT Right_ShortSleeve
			{
				OFFSET -0.265923 -10.480953 1.153800
				CHANNELS 3 Xrotation Yrotation Zrotation
				End Site
				{
					OFFSET -1.725766 19.823910 0.000000
				}
			}
		}
	}
	JOINT Spine
	{
		OFFSET 0.000000 13.368103 0.470500
		CHANNELS 3 Xrotation Yrotation Zrotation
		JOINT Spine1
		{
			OFFSET 0.147000 13.837402 0.538800
			CHANNELS 3 Xrotation Yrotation Zrotation
			JOINT Spine2
			{
				OFFSET 0.168000 16.242897 -1.435500
				CHANNELS 3 Xrotation Yrotation Zrotation
				JOINT Neck
				{
					OFFSET 0.217200 18.631500 -1.679100
					CHANNELS 3 Xrotation Yrotation Zrotation
					JOINT Head
					{
						OFFSET 0.000000 6.599396 1.385900
						CHANNELS 3 Xrotation Yrotation Zrotation
						JOINT Hat
						{
							OFFSET -0.532200 27.220596 -10.096100
							CHANNELS 3 Xrotation Yrotation Zrotation
							End Site
							{
								OFFSET 0.000000 22.029861 0.000000
							}
						}
						JOINT HairD
						{
							OFFSET -10.777400 17.437393 -1.325900
							CHANNELS 3 Xrotation Yrotation Zrotation
							JOINT HairD1
							{
								OFFSET -3.290299 -11.051193 1.062200
								CHANNELS 3 Xrotation Yrotation Zrotation
								End Site
								{
									OFFSET 0.000000 11.579437 0.000000
								}
							}
						}
						JOINT HairB
						{
							OFFSET -10.777400 17.437393 1.467900
							CHANNELS 3 Xrotation Yrotation Zrotation
							JOINT HairB1
							{
								OFFSET -1.561200 -12.956299 3.590200
								CHANNELS 3 Xrotation Yrotation Zrotation
								End Site
								{
									OFFSET 0.000000 13.534866 0.000000
								}
							}
						}
						JOINT HairA
						{
							OFFSET 9.713100 17.437393 1.467900
							CHANNELS 3 Xrotation Yrotation Zrotation
							JOINT HairA1
							{
								OFFSET 1.561200 -12.956299 3.590200
								CHANNELS 3 Xrotation Yrotation Zrotation
								End Site
								{
									OFFSET 0.000000 13.534866 0.000000
								}
							}
						}
						JOINT HairC
						{
							OFFSET 9.713100 17.437393 -1.325900
							CHANNELS 3 Xrotation Yrotation Zrotation
							JOINT HairC1
							{
								OFFSET 3.290300 -11.051193 1.062200
								CHANNELS 3 Xrotation Yrotation Zrotation
								End Site
								{
									OFFSET 0.000000 11.579437 0.000000
								}
							}
						}
					}
				}
				JOINT LeftShoulder
				{
					OFFSET 5.101800 15.108002 -2.763700
					CHANNELS 3 Xrotation Yrotation Zrotation
					JOINT LeftArm
					{
						OFFSET 9.825497 2.506317 -1.597400
						CHANNELS 3 Xrotation Yrotation Zrotation
						JOINT LeftForeArm
						{
							OFFSET 21.966244 0.000000 0.000000
							CHANNELS 3 Xrotation Yrotation Zrotation
							JOINT LeftHand
							{
								OFFSET 33.879036 0.000000 0.000000
								CHANNELS 3 Xrotation Yrotation Zrotation
								JOINT LeftHandThumb1
								{
									OFFSET 6.715286 -2.359680 3.363841
									CHANNELS 3 Xrotation Yrotation Zrotation
									JOINT LeftHandThumb2
									{
										OFFSET 2.507072 -1.447464 1.447461
										CHANNELS 3 Xrotation Yrotation Zrotation
										JOINT LeftHandThumb3
										{
											OFFSET 2.898338 -1.673355 1.673357
											CHANNELS 3 Xrotation Yrotation Zrotation
											End Site
											{
												OFFSET -0.295959 3.727692 -0.131651
											}
										}
									}
								}
								JOINT LeftHandIndex1
								{
									OFFSET 14.190811 -0.254547 3.840278
									CHANNELS 3 Xrotation Yrotation Zrotation
									JOINT LeftHandIndex2
									{
										OFFSET 3.551727 0.000000 -0.000000
										CHANNELS 3 Xrotation Yrotation Zrotation
										JOINT LeftHandIndex3
										{
											OFFSET 2.894196 0.000000 0.000000
											CHANNELS 3 Xrotation Yrotation Zrotation
											End Site
											{
												OFFSET -1.000603 2.690872 0.366626
											}
										}
									}
								}
								JOINT LeftHandMiddle1
								{
									OFFSET 13.776489 0.000000 0.000000
									CHANNELS 3 Xrotation Yrotation Zrotation
									JOINT LeftHandMiddle2
									{
										OFFSET 3.438232 0.000000 0.000000
										CHANNELS 3 Xrotation Yrotation Zrotation
										JOINT LeftHandMiddle3
										{
											OFFSET 3.691551 0.000000 0.000000
											CHANNELS 3 Xrotation Yrotation Zrotation
											End Site
											{
												OFFSET -1.082298 3.499527 0.457670
											}
										}
									}
								}
								JOINT LeftHandRing1
								{
									OFFSET 13.966164 -0.268127 -3.067488
									CHANNELS 3 Xrotation Yrotation Zrotation
									JOINT LeftHandRing2
									{
										OFFSET 3.162567 0.000000 0.000000
										CHANNELS 3 Xrotation Yrotation Zrotation
										JOINT LeftHandRing3
										{
											OFFSET 3.324348 0.000000 0.000000
											CHANNELS 3 Xrotation Yrotation Zrotation
											End Site
											{
												OFFSET -0.861900 3.184998 0.405154
											}
										}
									}
								}
								JOINT LeftHandPinky1
								{
									OFFSET 13.131393 -0.168503 -5.746925
									CHANNELS 3 Xrotation Yrotation Zrotation
									JOINT LeftHandPinky2
									{
										OFFSET 2.849182 0.000000 0.000000
										CHANNELS 3 Xrotation Yrotation Zrotation
										JOINT LeftHandPinky3
										{
											OFFSET 2.805038 0.000000 0.000000
											CHANNELS 3 Xrotation Yrotation Zrotation
											End Site
											{
												OFFSET -0.882500 2.642609 0.325652
											}
										}
									}
								}
							}
							JOINT Left_Sleeve
							{
								OFFSET 6.592125 -0.646545 0.805568
								CHANNELS 3 Xrotation Yrotation Zrotation
								End Site
								{
									OFFSET -0.000179 20.275787 -0.000000
								}
							}
						}
					}
				}
				JOINT RightShoulder
				{
					OFFSET -5.731700 15.108002 -2.763700
					CHANNELS 3 Xrotation Yrotation Zrotation
					JOINT RightArm
					{
						OFFSET -9.825497 2.506317 -1.597400
						CHANNELS 3 Xrotation Yrotation Zrotation
						JOINT RightForeArm
						{
							OFFSET -21.966242 0.000000 0.000000
							CHANNELS 3 Xrotation Yrotation Zrotation
							JOINT RightHand
							{
								OFFSET -33.879032 0.000000 0.000000
								CHANNELS 3 Xrotation Yrotation Zrotation
								JOINT RightHandThumb1
								{
									OFFSET -6.715286 -2.359680 3.363841
									CHANNELS 3 Xrotation Yrotation Zrotation
									JOINT RightHandThumb2
									{
										OFFSET -2.507072 -1.447464 1.447461
										CHANNELS 3 Xrotation Yrotation Zrotation
										JOINT RightHandThumb3
										{
											OFFSET -2.898338 -1.673355 1.673357
											CHANNELS 3 Xrotation Yrotation Zrotation
											End Site
											{
												OFFSET 0.295959 3.727692 -0.131651
											}
										}
									}
								}
								JOINT RightHandIndex1
								{
									OFFSET -14.190811 -0.254547 3.840278
									CHANNELS 3 Xrotation Yrotation Zrotation
									JOINT RightHandIndex2
									{
										OFFSET -3.551727 0.000000 -0.000000
										CHANNELS 3 Xrotation Yrotation Zrotation
										JOINT RightHandIndex3
										{
											OFFSET -2.894196 0.000000 0.000000
											CHANNELS 3 Xrotation Yrotation Zrotation
											End Site
											{
												OFFSET 1.000603 2.690872 0.366626
											}
										}
									}
								}
								JOINT RightHandMiddle1
								{
									OFFSET -13.776489 0.000000 0.000000
									CHANNELS 3 Xrotation Yrotation Zrotation
									JOINT RightHandMiddle2
									{
										OFFSET -3.438232 0.000000 0.000000
										CHANNELS 3 Xrotation Yrotation Zrotation
										JOINT RightHandMiddle3
										{
											OFFSET -3.691551 0.000000 0.000000
											CHANNELS 3 Xrotation Yrotation Zrotation
											End Site
											{
												OFFSET 1.082298 3.499527 0.457670
											}
										}
									}
								}
								JOINT RightHandRing1
								{
									OFFSET -13.966164 -0.268127 -3.067488
									CHANNELS 3 Xrotation Yrotation Zrotation
									JOINT RightHandRing2
									{
										OFFSET -3.162567 0.000000 0.000000
										CHANNELS 3 Xrotation Yrotation Zrotation
										JOINT RightHandRing3
										{
											OFFSET -3.324348 0.000000 0.000000
											CHANNELS 3 Xrotation Yrotation Zrotation
											End Site
											{
												OFFSET 0.861900 3.184998 0.405154
											}
										}
									}
								}
								JOINT RightHandPinky1
								{
									OFFSET -13.131393 -0.168503 -5.746925
									CHANNELS 3 Xrotation Yrotation Zrotation
									JOINT RightHandPinky2
									{
										OFFSET -2.849182 0.000000 0.000000
										CHANNELS 3 Xrotation Yrotation Zrotation
										JOINT RightHandPinky3
										{
											OFFSET -2.805038 0.000000 0.000000
											CHANNELS 3 Xrotation Yrotation Zrotation
											End Site
											{
												OFFSET 0.882500 2.642609 0.325652
											}
										}
									}
								}
							}
							JOINT Right_Sleeve
							{
								OFFSET -6.592125 -0.646545 0.805568
								CHANNELS 3 Xrotation Yrotation Zrotation
								End Site
								{
									OFFSET 0.000179 20.275787 -0.000000
								}
							}
						}
					}
				}
				JOINT Bind_Right_JacketString
				{
					OFFSET -3.534800 11.969597 7.200700
					CHANNELS 3 Xrotation Yrotation Zrotation
					JOINT Bind_Right_JacketString1
					{
						OFFSET -0.319900 -6.102600 2.794100
						CHANNELS 3 Xrotation Yrotation Zrotation
						End Site
						{
							OFFSET 0.000000 6.719452 0.000000
						}
					}
				}
				JOINT Bind_Left_JacketString
				{
					OFFSET 2.904800 11.969597 7.200700
					CHANNELS 3 Xrotation Yrotation Zrotation
					JOINT Bind_Left_JacketString1
					{
						OFFSET 0.364800 -5.904503 3.186800
						CHANNELS 3 Xrotation Yrotation Zrotation
						End Site
						{
							OFFSET 0.000000 6.719513 0.000000
						}
					}
				}
				JOINT HairE
				{
					OFFSET 5.915200 17.612701 -11.592200
					CHANNELS 3 Xrotation Yrotation Zrotation
					JOINT HairE1
					{
						OFFSET 0.289200 -7.171898 -1.284500
						CHANNELS 3 Xrotation Yrotation Zrotation
						End Site
						{
							OFFSET 0.000000 7.291756 0.000000
						}
					}
				}
				JOINT HairF
				{
					OFFSET -0.864800 17.612701 -11.592200
					CHANNELS 3 Xrotation Yrotation Zrotation
					JOINT HairF1
					{
						OFFSET 0.000000 -14.087097 -2.127501
						CHANNELS 3 Xrotation Yrotation Zrotation
						End Site
						{
							OFFSET 0.000000 14.246841 0.000000
						}
					}
				}
				JOINT HairG
				{
					OFFSET -8.087700 17.612701 -11.592200
					CHANNELS 3 Xrotation Yrotation Zrotation
					JOINT HairG1
					{
						OFFSET -0.293600 -6.081398 -0.910100
						CHANNELS 3 Xrotation Yrotation Zrotation
						End Site
						{
							OFFSET 0.000000 6.156120 0.000000
						}
					}
				}
			}
		}
	}
	JOINT Pouch
	{
		OFFSET 0.000000 4.394501 10.847300
		CHANNELS 3 Xrotation Yrotation Zrotation
		End Site
		{
			OFFSET 0.000000 21.880577 0.000000
		}
	}
	JOINT Bag
	{
		OFFSET -13.229000 4.813004 -0.593300
		CHANNELS 3 Xrotation Yrotation Zrotation
		End Site
		{
			OFFSET 0.000000 21.880577 0.000000
		}
	}
	JOINT OccupyGuyFacialAnim_Joint
	{
		OFFSET 1.000000 -70.206398 -1.655000
		CHANNELS 3 Xrotation Yrotation Zrotation
		End Site
		{
			OFFSET 0.000000 21.880577 0.000000
		}
	}
}
MOTION
Frames: 4
Frame Time: 0.033333
2.624748 69.761337 -7.446084 4.297092 -22.875746 0.926583 -0.000000 -0.000000 0.000000 -18.446753 9.371706 8.793456 23.265672 6.694751 3.233750 -4.550003 19.882969 -9.802366 -0.000000 0.000000 0.000000 -0.000002 -0.000001 0.000000 -12.191454 -7.630662 -2.351962 22.028967 -6.315047 -3.125096 -13.062255 -4.160403 6.520797 -0.000000 -0.000002 0.000000 -0.000000 0.000001 -0.000000 1.172508 0.880998 0.686514 1.709558 1.177524 0.325032 1.704545 1.179770 0.325358 -12.414479 0.117307 3.308831 8.780437 11.888176 -3.477430 0.000000 0.000000 -0.000000 0.000000 0.000000 -0.000000 0.000000 0.000000 0.000000 0.000000 0.000000 -0.000000 0.000000 0.000000 -0.000000 0.000000 0.000000 -0.000000 0.000000 0.000000 -0.000000 0.000000 0.000000 -0.000000 0.000000 0.000000 -0.000000 1.795555 -10.414798 -8.376298 4.512138 -14.235298 -62.161599 0.000001 -12.988279 0.000008 0.366147 -1.233464 -9.318833 0.699772 -6.020121 19.223911 19.021670 26.370910 -0.951654 0.000000 0.000001 -0.000000 0.488013 4.479292 -23.358943 0.882602 3.094093 -31.835519 0.000001 -0.000001 0.000001 2.423107 8.621467 -25.298136 1.488040 3.902354 -41.732866 0.000000 -0.000001 0.000004 3.080087 8.452298 -35.324850 1.103103 3.423249 -35.712894 -0.000001 0.000001 0.000002 3.571587 12.718724 -45.875550 0.673776 2.729631 -27.726246 0.000003 -0.000002 0.000004 0.000005 -0.000001 -0.000001 1.827743 17.003355 10.677226 -6.827971 3.908324 67.946374 0.000002 11.527321 -0.000006 7.382231 3.174512 6.000095 -13.495584 -11.552031 -5.371143 13.757382 -20.700060 -6.739729 -0.000000 -0.000001 0.000000 0.025649 -2.944391 17.855211 0.614389 -2.313880 29.736977 -0.000001 -0.000000 -0.000005 -0.776936 -1.003780 21.139243 0.928123 -2.791857 36.771737 0.000003 -0.000001 0.000003 -1.106975 -2.450906 38.478202 0.359069 -1.794877 22.623719 0.000004 -0.000001 -0.000004 -2.433743 -1.008252 39.728468 0.622799 -2.328519 29.944331 -0.000002 0.000000 -0.000001 0.000000 -0.000000 0.000000 0.000001 -0.000000 -0.000000 0.000001 -0.000000 -0.000000 0.000001 -0.000000 -0.000000 0.000001 -0.000000 -0.000000 0.000001 -0.000000 -0.000000 0.000001 -0.000000 -0.000000 0.000001 -0.000000 -0.000000 0.000001 -0.000000 -0.000000 0.000001 -0.000000 -0.000000 0.000001 -0.000000 -0.000000 -0.000000 -0.000000 0.000000 -0.000000 -0.000000 0.000000 -0.000000 -0.000000 0.000000 
2.176162 69.738365 -7.885544 4.243847 -22.547300 1.209849 -0.000001 0.000001 -0.000000 -18.553545 9.296901 9.019810 22.863730 6.644544 3.217614 -3.648512 19.483302 -10.313389 -0.000000 -0.000001 -0.000000 -0.000000 -0.000001 0.000000 -12.758782 -7.692178 -2.211339 22.969438 -6.406624 -3.020452 -13.515914 -4.362151 5.925499 0.000000 -0.000002 0.000000 -0.000001 0.000002 -0.000000 1.193276 0.776630 0.983034 1.735847 1.053038 0.464149 1.730516 1.056810 0.463034 -12.372395 0.172236 3.250672 8.377381 12.061604 -3.790717 -0.000000 0.000001 0.000000 -0.000000 0.000001 0.000000 -0.000000 0.000001 0.000000 -0.000000 0.000001 -0.000000 -0.000000 0.000000 0.000000 -0.000000 0.000001 -0.000000 -0.000000 0.000000 0.000000 -0.000000 0.000001 0.000000 -0.000000 0.000001 0.000000 1.762308 -10.479369 -8.672798 4.629445 -15.066759 -62.850171 -0.000002 -13.791873 -0.000003 0.687032 -1.673352 -8.886436 0.699771 -6.020123 19.223914 19.039637 26.421810 -0.978025 0.000000 0.000002 -0.000002 0.474699 4.467383 -23.361060 0.876247 3.083839 -31.717370 -0.000000 0.000001 -0.000002 2.426873 8.626408 -25.315473 1.486920 3.901109 -41.716367 -0.000000 0.000001 -0.000003 3.084070 8.454873 -35.355829 1.099919 3.418823 -35.659543 -0.000004 -0.000001 -0.000002 3.600974 12.722148 -45.927493 0.673931 2.729937 -27.729595 -0.000002 -0.000002 0.000003 0.000004 0.000000 -0.000001 1.840248 16.969897 10.612522 -6.827966 4.122958 67.750736 0.000002 11.959247 0.000012 7.101349 3.383677 5.645250 -13.495582 -11.552030 -5.371143 13.674015 -20.592305 -6.813693 0.000001 -0.000001 0.000001 0.037416 -2.984180 17.928413 0.592928 -2.275925 29.200957 0.000001 0.000001 -0.000001 -0.774448 -1.013516 21.159969 0.927109 -2.790492 36.750779 0.000002 -0.000001 -0.000004 -1.086879 -2.478561 38.501025 0.359708 -1.796394 22.643906 -0.000000 0.000000 0.000001 -2.404811 -1.040272 39.721153 0.621344 -2.326005 29.908650 -0.000001 0.000000 0.000004 -0.000000 -0.000000 -0.000000 0.000000 0.000000 0.000000 0.000000 -0.000000 0.000000 0.000000 0.000000 0.000000 0.000000 0.000000 0.000000 0.000000 0.000000 0.000000 0.000000 -0.000000 -0.000000 0.000000 0.000000 0.000000 0.000000 0.000000 0.000000 0.000000 0.000000 0.000000 0.000000 -0.000000 -0.000000 -0.000001 0.000001 -0.000000 -0.000001 0.000001 -0.000000 -0.000001 0.000001 -0.000000 
1.760412 69.721794 -8.334957 4.227760 -22.115265 1.527747 -0.000000 0.000000 -0.000000 -18.834522 9.315756 9.379328 22.628461 6.560885 2.969247 -2.786120 18.949682 -10.895305 0.000000 -0.000001 0.000000 0.000003 0.000000 -0.000000 -13.318791 -7.762961 -2.111797 23.780593 -6.507266 -2.919665 -13.883837 -4.639180 5.347636 -0.000000 -0.000002 0.000000 0.000001 -0.000001 -0.000000 1.213226 0.700530 1.246983 1.762036 0.959672 0.586257 1.756615 0.964513 0.584095 -12.408213 0.228542 3.127874 8.260633 12.077211 -3.957396 0.000000 0.000000 -0.000000 0.000000 0.000000 -0.000000 0.000000 0.000000 -0.000000 0.000000 0.000000 -0.000000 0.000000 0.000000 0.000000 0.000000 0.000000 -0.000000 0.000000 0.000000 0.000000 0.000000 0.000000 -0.000000 0.000000 0.000000 -0.000000 1.742024 -10.479585 -8.881424 4.446682 -15.878604 -63.699731 -0.000005 -14.530618 0.000001 0.727197 -2.039071 -8.275734 0.699768 -6.020120 19.223909 19.232249 26.911924 -1.241907 0.000000 -0.000001 -0.000003 0.646186 4.637251 -23.749085 0.884306 3.096796 -31.866958 0.000002 0.000001 -0.000002 2.202836 8.514876 -23.151923 1.494980 3.910110 -41.834584 0.000002 0.000002 0.000001 3.230984 8.850364 -33.683607 1.024139 3.310833 -34.368450 0.000002 -0.000001 -0.000000 4.052027 13.192102 -45.111972 0.687694 2.755924 -28.017163 -0.000001 0.000001 0.000001 0.000001 -0.000000 0.000000 1.857576 16.934440 10.510910 -6.836443 4.236097 67.526973 0.000002 11.877154 -0.000008 7.144037 3.175031 5.401606 -13.495581 -11.552028 -5.371143 13.721376 -20.653584 -6.771670 0.000001 0.000000 0.000002 0.057705 -3.056621 18.180635 0.603838 -2.295315 29.474493 -0.000001 -0.000001 0.000000 -0.761534 -1.055552 21.214668 0.924394 -2.786872 36.695133 -0.000001 -0.000001 -0.000003 -1.078730 -2.491959 38.533236 0.359123 -1.795007 22.625425 0.000005 -0.000003 -0.000003 -2.389014 -1.059247 39.733492 0.620778 -2.325016 29.894635 -0.000003 0.000000 -0.000003 0.000000 0.000001 -0.000000 -0.000000 0.000000 0.000000 0.000000 0.000000 0.000000 -0.000000 0.000000 0.000000 -0.000000 0.000000 0.000000 -0.000000 0.000000 0.000000 0.000000 0.000000 -0.000000 -0.000000 0.000000 0.000000 -0.000000 0.000000 0.000000 -0.000000 0.000000 0.000000 0.000000 0.000000 -0.000000 -0.000000 0.000000 -0.000000 -0.000000 0.000000 -0.000000 -0.000000 0.000000 -0.000000 
1.386423 69.700676 -8.780186 4.207805 -21.546774 1.778122 0.000000 -0.000000 -0.000000 -19.345391 9.300597 9.837007 22.666901 6.574849 2.638448 -1.910635 17.490757 -10.994025 0.000000 0.000000 0.000000 0.000001 -0.000001 -0.000000 -13.816235 -7.799127 -1.944906 24.478387 -6.620512 -2.867141 -14.180054 -5.100333 4.819759 0.000000 0.000000 0.000000 0.000001 0.000000 -0.000000 1.243595 0.623102 1.512693 1.801245 0.861934 0.713715 1.795976 0.867408 0.710521 -12.505833 0.261077 3.039446 8.372391 12.039940 -4.036197 0.000000 0.000000 -0.000000 0.000000 0.000000 -0.000000 0.000000 0.000000 0.000000 0.000000 0.000000 -0.000000 -0.000000 0.000000 -0.000000 0.000000 0.000000 -0.000000 -0.000000 0.000000 -0.000000 0.000000 0.000000 -0.000000 0.000000 0.000000 -0.000000 1.737846 -10.500125 -8.909130 4.085665 -16.658138 -64.773532 -0.000002 -15.290019 0.000000 0.323020 -2.206427 -8.110398 0.699768 -6.020122 19.223914 19.731771 28.108023 -1.909995 -0.000003 0.000001 -0.000001 1.212873 5.169590 -24.986183 0.894107 3.112502 -32.048023 0.000000 -0.000001 -0.000000 2.260903 8.784650 -22.448754 1.500972 3.916760 -41.922379 0.000002 0.000003 -0.000004 3.351454 9.150750 -32.751867 0.980951 3.246907 -33.613485 0.000002 0.000002 -0.000005 4.148423 13.387746 -44.233104 0.704604 2.787438 -28.366877 0.000000 -0.000003 0.000002 0.000001 -0.000000 0.000002 1.860061 16.918734 10.506910 -6.823215 4.212506 67.112141 0.000002 11.460963 -0.000007 7.378312 2.689379 5.248005 -13.495581 -11.552028 -5.371143 13.893415 -20.874313 -6.619124 -0.000001 0.000002 0.000002 0.122744 -3.155234 18.550220 0.607748 -2.302221 29.572076 -0.000001 -0.000000 0.000002 -0.744042 -1.122438 21.357720 0.925490 -2.788329 36.717536 0.000002 -0.000001 0.000003 -1.065057 -2.511291 38.554526 0.359465 -1.795828 22.636307 -0.000001 0.000000 0.000001 -2.400130 -1.050946 39.780159 0.621980 -2.327118 29.924425 -0.000003 0.000001 -0.000001 0.000000 0.000000 0.000000 -0.000000 -0.000002 0.000000 -0.000000 -0.000000 0.000001 -0.000000 -0.000002 0.000001 -0.000000 -0.000002 0.000001 -0.000000 -0.000002 0.000000 -0.000000 -0.000000 0.000000 -0.000000 -0.000002 0.000001 -0.000000 -0.000002 0.000001 -0.000000 -0.000002 0.000000 -0.000000 -0.000000 0.000000 0.000000 -0.000000 -0.000000 0.000000 -0.000000 -0.000000 0.000000 -0.000000 -0.000000 
